<svg xmlns="http://www.w3.org/2000/svg" xmlns:xlink="http://www.w3.org/1999/xlink" preserveAspectRatio="xMidYMid" width="162.187" height="34.938" viewBox="0 0 162.187 34.938">
  <defs>
    <style>
      .cls-1 {
        fill: #000;
        fill-rule: evenodd;
      }
    </style>
  </defs>
  <path d="M162.194,26.874 L162.194,34.266 L141.074,34.266 L141.074,0.666 L161.954,0.666 L161.954,8.058 L148.754,8.058 L148.754,13.626 L160.754,13.626 L160.754,20.922 L148.754,20.922 L148.754,26.874 L162.194,26.874 ZM122.594,27.450 C124.290,27.450 125.834,27.083 127.226,26.346 C128.618,25.610 129.666,24.602 130.370,23.322 L136.994,27.162 C135.554,29.562 133.554,31.458 130.994,32.850 C128.433,34.242 125.634,34.938 122.594,34.938 C117.570,34.938 113.402,33.266 110.090,29.922 C106.778,26.579 105.122,22.427 105.122,17.466 C105.122,12.506 106.778,8.354 110.090,5.010 C113.402,1.667 117.570,-0.006 122.594,-0.006 C125.601,-0.006 128.385,0.690 130.946,2.082 C133.506,3.474 135.522,5.370 136.994,7.770 L130.370,11.610 C129.633,10.298 128.577,9.282 127.202,8.562 C125.826,7.842 124.290,7.482 122.594,7.482 C119.618,7.482 117.242,8.394 115.466,10.218 C113.690,12.042 112.802,14.459 112.802,17.466 C112.802,20.474 113.690,22.890 115.466,24.714 C117.242,26.538 119.618,27.450 122.594,27.450 ZM92.642,0.666 L100.322,0.666 L100.322,34.266 L92.642,34.266 L92.642,0.666 ZM68.547,34.266 L57.603,0.666 L66.003,0.666 L73.443,25.386 L80.883,0.666 L89.283,0.666 L78.339,34.266 L68.547,34.266 ZM34.563,0.666 L55.443,0.666 L55.443,8.058 L42.243,8.058 L42.243,13.626 L54.243,13.626 L54.243,20.922 L42.243,20.922 L42.243,26.874 L55.683,26.874 L55.683,34.266 L34.563,34.266 L34.563,0.666 ZM13.443,34.266 L0.003,34.266 L0.003,0.666 L13.443,0.666 C18.082,0.666 21.963,2.274 25.083,5.490 C28.203,8.706 29.763,12.698 29.763,17.466 C29.763,22.235 28.203,26.226 25.083,29.442 C21.963,32.658 18.082,34.266 13.443,34.266 ZM19.899,10.626 C18.250,8.915 16.099,8.058 13.443,8.058 L7.683,8.058 L7.683,26.874 L13.443,26.874 C16.099,26.874 18.250,26.018 19.899,24.306 C21.547,22.595 22.371,20.315 22.371,17.466 C22.371,14.618 21.547,12.338 19.899,10.626 Z" class="cls-1"/>
</svg>
